# xmcd CD database file
#
# Track frame offsets:
#	150
#	13765
#	26375
#	37104
#	49427
#	63913
#	76169
#	89096
#	101372
#	112236
#	125068
#	137735
#	149862
#	163169
#	174900
#	189269
#	201678
#	213437
#	226710
#	237386
#	249499
#	262299
#	275213
#	287281
#	299847
#
# Disc length: 4153 seconds
#
# Revision: 0
# Processed by: cddbd v1.5.2PL0 Copyright (c) Steve Scherf et al.
# Submitted via: Fey Extractor 
#
DISCID=91103719
DTITLE=Lonnie Johnson - A Life in Music - Lonnie Johnson - A Life in Music4
DYEAR=2009
DGENRE=Blues
TTITLE0=Lonnie Johnson - A Life in Music4 - Friendless Blues
TTITLE1=Lonnie Johnson - A Life in Music4 - Falling Rain Blues
TTITLE2=Lonnie Johnson - A Life in Music4 - It's Too Late to Cry
TTITLE3=Lonnie Johnson - A Life in Music4 - Playing Around
TTITLE4=Lonnie Johnson - A Life in Music4 - My MY Baby
TTITLE5=Lonnie Johnson - A Life in Music4 - Trouble A'int Nothing but the Blues
TTITLE6=Lonnie Johnson - A Life in Music4 - Blues Stay Away from Me
TTITLE7=Lonnie Johnson - A Life in Music4 - Nothing but trouble
TTITLE8=Lonnie Johnson - A Life in Music4 - Old fashioned love
TTITLE9=Lonnie Johnson - A Life in Music4 - What do you want that I've got, pretty baby
TTITLE10=Lonnie Johnson - A Life in Music4 - Why should I cry
TTITLE11=Lonnie Johnson - A Life in Music4 - It was all in vain
TTITLE12=Lonnie Johnson - A Life in Music4 - You only want me when you're lonely
TTITLE13=Lonnie Johnson - A Life in Music4 - Me and my crazy self
TTITLE14=Lonnie Johnson - A Life in Music4 - Seven long days
TTITLE15=Lonnie Johnson - A Life in Music4 - I'm guilty
TTITLE16=Lonnie Johnson - A Life in Music4 - Just another day
TTITLE17=Lonnie Johnson - A Life in Music4 - You can't buy love
TTITLE18=Lonnie Johnson - A Life in Music4 - Can't sleep anymore
TTITLE19=Lonnie Johnson - A Life in Music4 - Don't make me cry baby
TTITLE20=Lonnie Johnson - A Life in Music4 - My woman is gone
TTITLE21=Lonnie Johnson - A Life in Music4 - Will you remember
TTITLE22=Lonnie Johnson - A Life in Music4 - Stick with it baby
TTITLE23=Lonnie Johnson - A Life in Music4 - I found a dream
TTITLE24=Lonnie Johnson - A Life in Music4 - It's been so long
EXTD=YEAR: 2009
EXTT0=
EXTT1=
EXTT2=
EXTT3=
EXTT4=
EXTT5=
EXTT6=
EXTT7=
EXTT8=
EXTT9=
EXTT10=
EXTT11=
EXTT12=
EXTT13=
EXTT14=
EXTT15=
EXTT16=
EXTT17=
EXTT18=
EXTT19=
EXTT20=
EXTT21=
EXTT22=
EXTT23=
EXTT24=
PLAYORDER=
